<svg xmlns="http://www.w3.org/2000/svg" xmlns:xlink="http://www.w3.org/1999/xlink" width="500" zoomAndPan="magnify" viewBox="0 0 375 112.499997" height="150" preserveAspectRatio="xMidYMid meet" version="1.0"><defs><g/><clipPath id="bef3593cec"><path d="M 10.371094 7.433594 L 153.734375 7.433594 L 153.734375 104.503906 L 10.371094 104.503906 Z M 10.371094 7.433594 " clip-rule="nonzero"/></clipPath></defs><g clip-path="url(#bef3593cec)"><path fill="#f5f3f5" d="M 46.011719 33.066406 L 46.011719 45.878906 C 46.011719 52.910156 51.789062 58.691406 58.824219 58.691406 L 105.550781 58.691406 C 112.582031 58.691406 118.363281 52.910156 118.363281 45.878906 L 118.363281 20.253906 C 118.363281 13.21875 112.582031 7.441406 105.550781 7.441406 L 58.824219 7.441406 C 51.789062 7.441406 46.011719 13.21875 46.011719 20.253906 Z M 153.882812 27.609375 L 125.222656 27.609375 L 125.222656 45.878906 C 125.222656 56.699219 116.367188 65.550781 105.550781 65.550781 L 58.824219 65.550781 C 48.003906 65.550781 39.148438 56.699219 39.148438 45.878906 L 39.148438 27.609375 L 10.492188 27.609375 L 10.492188 59.699219 C 10.492188 75.351562 21.847656 88.476562 36.722656 91.25 L 33.441406 97.847656 C 32.75 99.238281 33.320312 100.945312 34.710938 101.632812 L 39.183594 103.859375 C 40.574219 104.546875 42.28125 103.976562 42.972656 102.585938 L 48.34375 91.789062 L 116.027344 91.789062 L 121.398438 102.585938 C 122.089844 103.976562 123.796875 104.546875 125.1875 103.859375 L 129.660156 101.632812 C 131.050781 100.945312 131.621094 99.238281 130.929688 97.847656 L 127.648438 91.25 C 142.527344 88.476562 153.882812 75.347656 153.882812 59.699219 Z M 153.882812 27.609375 " fill-opacity="1" fill-rule="evenodd"/></g><g fill="#f7f7f7" fill-opacity="1"><g transform="translate(182.401947, 52.650133)"><g><path d="M 21.484375 -16.625 L 32.984375 -40.21875 L 41.625 -40.21875 L 21.15625 0.703125 L -0.328125 -40.21875 L 9.28125 -40.21875 Z M 21.484375 -16.625 "/></g></g></g><g fill="#f7f7f7" fill-opacity="1"><g transform="translate(223.703028, 52.650133)"><g><path d="M 28.78125 0 L 3.828125 0 L 3.828125 -40.21875 L 25.203125 -40.21875 L 25.203125 -32.65625 L 12.203125 -32.65625 L 12.203125 -25.15625 L 27.3125 -25.15625 L 27.3125 -17.65625 L 12.203125 -17.65625 L 12.203125 -7.5625 L 28.78125 -7.5625 Z M 28.78125 0 "/></g></g></g><g fill="#f7f7f7" fill-opacity="1"><g transform="translate(254.63835, 52.650133)"><g><path d="M 16.40625 -6.96875 L 12.203125 -6.96875 L 12.203125 0 L 3.828125 0 L 3.828125 -40.21875 L 17.8125 -40.21875 C 20.1875 -40.21875 22.378906 -39.8125 24.390625 -39 C 26.410156 -38.195312 28.175781 -37.066406 29.6875 -35.609375 C 31.195312 -34.148438 32.375 -32.460938 33.21875 -30.546875 C 34.070312 -28.640625 34.5 -26.59375 34.5 -24.40625 C 34.5 -20.800781 33.6875 -17.703125 32.0625 -15.109375 C 30.445312 -12.523438 28.234375 -10.582031 25.421875 -9.28125 L 34.125 0 L 23 0 Z M 12.203125 -14.515625 L 15.65625 -14.515625 C 18.96875 -14.515625 21.503906 -15.304688 23.265625 -16.890625 C 25.023438 -18.472656 25.90625 -20.757812 25.90625 -23.75 C 25.90625 -25.40625 25.582031 -26.898438 24.9375 -28.234375 C 24.289062 -29.566406 23.328125 -30.632812 22.046875 -31.4375 C 20.773438 -32.25 19.1875 -32.65625 17.28125 -32.65625 L 12.203125 -32.65625 Z M 12.203125 -14.515625 "/></g></g></g><g fill="#f7f7f7" fill-opacity="1"><g transform="translate(291.080458, 52.650133)"><g><path d="M 13.5 -17.8125 C 10.007812 -18.207031 7.21875 -19.429688 5.125 -21.484375 C 3.039062 -23.535156 2 -26.144531 2 -29.3125 C 2 -31 2.347656 -32.550781 3.046875 -33.96875 C 3.753906 -35.394531 4.679688 -36.628906 5.828125 -37.671875 C 6.984375 -38.722656 8.253906 -39.523438 9.640625 -40.078125 C 11.023438 -40.640625 12.414062 -40.921875 13.8125 -40.921875 C 15.832031 -40.921875 17.757812 -40.515625 19.59375 -39.703125 C 21.425781 -38.890625 23.117188 -37.566406 24.671875 -35.734375 L 18.078125 -30.9375 C 17.546875 -31.507812 16.882812 -31.984375 16.09375 -32.359375 C 15.300781 -32.742188 14.539062 -32.9375 13.8125 -32.9375 C 12.695312 -32.9375 11.796875 -32.617188 11.109375 -31.984375 C 10.429688 -31.359375 10.09375 -30.488281 10.09375 -29.375 C 10.09375 -28.46875 10.5 -27.644531 11.3125 -26.90625 C 12.125 -26.164062 13.585938 -25.726562 15.703125 -25.59375 C 18.015625 -25.445312 20.113281 -24.847656 22 -23.796875 C 23.882812 -22.753906 25.394531 -21.296875 26.53125 -19.421875 C 27.664062 -17.554688 28.234375 -15.328125 28.234375 -12.734375 C 28.234375 -10.148438 27.59375 -7.835938 26.3125 -5.796875 C 25.039062 -3.765625 23.367188 -2.171875 21.296875 -1.015625 C 19.222656 0.128906 17 0.703125 14.625 0.703125 C 12.320312 0.703125 10.054688 0.242188 7.828125 -0.671875 C 5.597656 -1.585938 3.53125 -3.09375 1.625 -5.1875 L 8.53125 -10.25 C 9.46875 -9.101562 10.421875 -8.332031 11.390625 -7.9375 C 12.359375 -7.539062 13.4375 -7.34375 14.625 -7.34375 C 16 -7.34375 17.160156 -7.816406 18.109375 -8.765625 C 19.066406 -9.722656 19.546875 -10.847656 19.546875 -12.140625 C 19.546875 -13.765625 19.019531 -15.0625 17.96875 -16.03125 C 16.925781 -17 15.4375 -17.59375 13.5 -17.8125 Z M 13.5 -17.8125 "/></g></g></g><g fill="#f7f7f7" fill-opacity="1"><g transform="translate(321.097971, 52.650133)"><g><path d="M 33.03125 0 L 30.390625 -5.40625 L 10.90625 -5.40625 L 8.3125 0 L -0.328125 0 L 20.890625 -40.921875 L 42.15625 0 Z M 20.5625 -25.484375 L 14.515625 -12.953125 L 26.71875 -12.953125 Z M 20.5625 -25.484375 "/></g></g></g><g fill="#f7f7f7" fill-opacity="1"><g transform="translate(226.443277, 100.629908)"><g><path d="M 19.328125 0 L 10.953125 0 L 10.953125 -32.65625 L 1.03125 -32.65625 L 1.03125 -40.21875 L 29.90625 -40.21875 L 29.90625 -32.65625 L 19.328125 -32.65625 Z M 19.328125 0 "/></g></g></g><g fill="#f7f7f7" fill-opacity="1"><g transform="translate(257.375375, 100.629908)"><g><path d="M 12.203125 -40.21875 L 12.203125 0 L 3.828125 0 L 3.828125 -40.21875 Z M 12.203125 -40.21875 "/></g></g></g><g fill="#f7f7f7" fill-opacity="1"><g transform="translate(273.408242, 100.629908)"><g><path d="M 3.828125 -40.21875 L 12.203125 -40.21875 L 12.203125 -7.5625 L 28.390625 -7.5625 L 28.390625 0 L 3.828125 0 Z M 3.828125 -40.21875 "/></g></g></g><g fill="#f7f7f7" fill-opacity="1"><g transform="translate(302.612888, 100.629908)"><g><path d="M 3.828125 -40.21875 L 12.203125 -40.21875 L 12.203125 -7.5625 L 28.390625 -7.5625 L 28.390625 0 L 3.828125 0 Z M 3.828125 -40.21875 "/></g></g></g><g fill="#f7f7f7" fill-opacity="1"><g transform="translate(331.817534, 100.629908)"><g><path d="M 28.78125 0 L 3.828125 0 L 3.828125 -40.21875 L 25.203125 -40.21875 L 25.203125 -32.65625 L 12.203125 -32.65625 L 12.203125 -25.15625 L 27.3125 -25.15625 L 27.3125 -17.65625 L 12.203125 -17.65625 L 12.203125 -7.5625 L 28.78125 -7.5625 Z M 28.78125 0 "/></g></g></g></svg>