<svg xmlns="http://www.w3.org/2000/svg" xmlns:xlink="http://www.w3.org/1999/xlink" width="250" zoomAndPan="magnify" viewBox="0 0 187.5 187.499992" height="250" preserveAspectRatio="xMidYMid meet" version="1.0"><defs><clipPath id="9f7df9b810"><path d="M 0 30.269531 L 187 30.269531 L 187 156.683594 L 0 156.683594 Z M 0 30.269531 " clip-rule="nonzero"/></clipPath></defs><g clip-path="url(#9f7df9b810)"><path fill="#f7f7f7" d="M 46.398438 63.640625 L 46.398438 80.324219 C 46.398438 89.480469 53.925781 97.007812 63.082031 97.007812 L 123.917969 97.007812 C 133.078125 97.007812 140.601562 89.480469 140.601562 80.324219 L 140.601562 46.960938 C 140.601562 37.800781 133.078125 30.277344 123.917969 30.277344 L 63.082031 30.277344 C 53.925781 30.277344 46.398438 37.800781 46.398438 46.960938 Z M 186.847656 56.539062 L 149.535156 56.539062 L 149.535156 80.324219 C 149.535156 94.410156 138.007812 105.9375 123.917969 105.9375 L 63.082031 105.9375 C 48.996094 105.9375 37.46875 94.410156 37.46875 80.324219 L 37.46875 56.539062 L 0.152344 56.539062 L 0.152344 98.320312 C 0.152344 118.699219 14.9375 135.785156 34.308594 139.394531 L 30.035156 147.988281 C 29.136719 149.800781 29.878906 152.019531 31.6875 152.917969 L 37.511719 155.8125 C 39.324219 156.714844 41.542969 155.96875 42.445312 154.160156 L 49.4375 140.101562 L 137.5625 140.101562 L 144.558594 154.160156 C 145.457031 155.96875 147.675781 156.714844 149.488281 155.8125 L 155.3125 152.917969 C 157.121094 152.019531 157.867188 149.800781 156.96875 147.988281 L 152.695312 139.394531 C 172.0625 135.785156 186.847656 118.695312 186.847656 98.320312 Z M 186.847656 56.539062 " fill-opacity="1" fill-rule="evenodd"/></g></svg>